<svg width="21" height="19" viewBox="0 0 21 19" fill="none" xmlns="http://www.w3.org/2000/svg">
<path d="M9.46216 2.2527C8.88617 3.49867 8.18527 5.0153 7.90422 5.62426C7.6249 6.23157 7.39242 6.73161 7.38895 6.73491C7.38548 6.73822 6.8546 6.77617 6.20575 6.82073C5.55863 6.86529 4.37716 6.94615 3.58084 7.00061C2.78452 7.05672 1.695 7.13099 1.16065 7.16729C0.6263 7.2036 0.145732 7.23826 0.0936848 7.24321L0 7.25311L0.0850103 7.33067C0.133588 7.37193 0.667938 7.82576 1.27168 8.33901C1.87717 8.85225 2.67002 9.52392 3.03435 9.83253C5.23247 11.6974 5.74079 12.1281 5.76161 12.143C5.79111 12.1644 5.89 11.7667 4.8213 15.8809C4.37716 17.5906 4.0163 18.995 4.01804 19C4.02151 19.0066 5.52567 18.1765 7.36293 17.1566C9.19846 16.1367 10.713 15.3049 10.7286 15.3082C10.7425 15.3115 11.4191 15.7076 12.2293 16.1862C13.0413 16.6664 14.2505 17.381 14.9184 17.7754C15.5864 18.1699 16.3254 18.6072 16.5614 18.7458C16.7956 18.8861 16.9934 19 17.0003 19C17.0073 19 17.0073 18.9719 17.0003 18.9372C16.9899 18.8811 16.2873 15.8066 15.654 13.049C15.5031 12.3855 15.3782 11.831 15.3782 11.8162C15.3782 11.7947 16.5041 10.8871 20.5777 7.62113C21.0253 7.26301 21.0305 7.25806 20.9767 7.24651C20.9455 7.23991 19.2227 7.07488 17.1478 6.87849C15.0728 6.68211 13.3588 6.51542 13.3379 6.50717C13.3119 6.49727 13.2304 6.32399 12.9927 5.77114C12.8227 5.37177 12.2779 4.09938 11.7835 2.94252C11.289 1.78566 10.805 0.651901 10.7078 0.42581C10.6107 0.198069 10.5274 0.00828362 10.5205 3.24249e-05C10.5152 -0.00656891 10.0381 1.00672 9.46216 2.2527Z" fill="#D7C631"/>
</svg>
